<svg version="1.1" xmlns="http://www.w3.org/2000/svg" viewBox="-258.0479995727539 -1143.8080322265625 7208.800390625 1460.2240356445313"><desc>Created with Snap</desc><defs></defs><g><g><g transform="matrix(1.024,0,0,-1.024,0,0)"><g transform="matrix(1,0,0,1,0,0)"><path d="M266 -9Q180 -9 132 27Q85 63 66 124Q48 185 48 260L48 546Q48 628 66 689Q85 750 132 783Q180 817 266 817Q342 817 386 789Q431 761 450 709Q470 657 470 584L470 520L363 520L363 577Q363 622 358 656Q354 691 334 710Q314 729 267 729Q219 729 197 708Q175 688 168 650Q162 613 162 563L162 242Q162 181 172 145Q182 110 205 95Q228 80 267 80Q313 80 333 100Q353 121 358 157Q363 193 363 241L363 301L470 301L470 241Q470 167 452 110Q434 54 390 22Q346 -9 266 -9Z" fill="#225662" style=""></path></g><g transform="matrix(1,0,0,1,515,0)"><path d="M164 0L57 0L57 810L164 810L164 518Q193 546 229 566Q265 586 309 586Q343 586 361 568Q380 550 387 523Q395 496 395 468L395 0L288 0L288 437Q288 468 279 485Q270 502 242 502Q223 502 202 491Q182 480 164 464L164 0Z" fill="#225662" style=""></path></g><g transform="matrix(1,0,0,1,960,0)"><g transform="matrix(1.5469,0,0,1.5469,-72.9195,598.375)"><g transform="matrix(1,0,0,-1,0,0)">
<g>
	<path d="M203.2,10.4L197.9,8C90.4,45.6,22.1,261.5,125.3,328.2l0.6-0.8C113,308.9,92.6,226.7,107,184.2l82.5,17.8
		c1.1,9.7,3.3,22.2,8,35.4c3.3-8.9,6.7-22.6,8-35.2l85-17.6c17.4,66.2-10.2,125.5-19,143.4l0.3,0.4
		C385.7,250.8,297.8,52.8,203.2,10.4z M207.1,163.9c-0.7-16.1-2.7-36.5-9.6-55.4c-6.1,16.8-8.6,34.6-9.6,55.2l-71.4-15.4
		c16.1-48,44.6-92.6,80.8-109.9c34,17.3,70.7,64.5,84.1,110.1L207.1,163.9z" fill="#225662" style=""></path>
	<path d="M230.8,349.4c-7.3,1.2-21.7,4.3-33.3,8.2c-4.4-1.4-19.6-6.9-44-10c8,11.4,14.2,16.9,31.9,25.7l-2.8,18.7h34.1l-3-20.2
		c7.8-3.7,22.5-11.9,30.2-24.2C239.3,348,235,348.7,230.8,349.4z" fill="#225662" style=""></path>
</g>
<desc>Created with Snap</desc><defs></defs></g></g></g><g transform="matrix(1,0,0,1,1429.8439,0)"><path d="M158 -8Q124 -8 98 11Q72 31 57 61Q42 92 42 126Q42 180 60 217Q78 254 109 279Q141 305 182 324Q224 343 270 361L270 402Q270 437 266 460Q262 483 249 494Q237 506 212 506Q190 506 176 496Q163 486 157 467Q151 449 151 424L151 395L45 399Q47 495 89 540Q131 586 219 586Q305 586 341 539Q377 492 377 403L377 139Q377 112 378 87Q380 62 382 40Q385 19 387 0L289 0Q286 16 281 40Q277 65 275 85Q265 51 236 21Q208 -8 158 -8ZM200 84Q216 84 230 93Q244 102 255 113Q266 125 270 132L270 296Q245 282 223 268Q201 254 184 238Q168 223 158 203Q149 184 149 159Q149 124 162 104Q175 84 200 84Z" fill="#225662" style=""></path></g><g transform="matrix(1,0,0,1,1855.8439,0)"><path d="M164 0L57 0L57 810L164 810L164 518Q193 546 229 566Q265 586 309 586Q343 586 361 568Q380 550 387 523Q395 496 395 468L395 0L288 0L288 437Q288 468 279 485Q270 502 242 502Q223 502 202 491Q182 480 164 464L164 0Z" fill="#225662" style=""></path></g><g transform="matrix(1,0,0,1,2300.8439,0)"><path fill="#225662" style=""></path></g><g transform="matrix(1,0,0,1,2529.8439,0)"><path d="M279 0L63 0L63 810L249 810Q304 810 344 798Q385 786 412 761Q439 736 452 697Q465 659 465 607Q465 557 452 520Q440 484 414 463Q389 442 349 436Q398 425 428 398Q458 372 472 330Q487 289 487 231Q487 179 475 136Q463 93 437 63Q412 33 372 16Q333 0 279 0ZM176 386L176 81L252 81Q328 81 353 116Q379 152 379 231Q379 282 365 316Q352 351 322 368Q293 386 243 386L176 386ZM176 726L176 472L243 472Q291 472 318 485Q345 499 356 529Q367 559 367 607Q367 663 350 688Q333 713 297 719Q261 726 203 726L176 726Z" fill="#225662" style=""></path></g><g transform="matrix(1,0,0,1,3053.8439,0)"><path d="M137 -8Q103 -8 84 10Q65 28 57 55Q50 82 50 110L50 578L157 578L157 142Q157 111 166 93Q175 76 203 76Q221 76 240 86Q260 97 278 112L278 578L385 578L385 0L278 0L278 57Q250 30 214 11Q179 -8 137 -8Z" fill="#225662" style=""></path></g><g transform="matrix(1,0,0,1,3493.8439,0)"><path d="M261 -8Q230 -8 205 7Q181 23 163 42L163 0L56 0L56 810L163 810L163 532Q182 554 208 570Q235 586 272 586Q317 586 343 562Q370 539 383 503Q396 468 400 431Q404 395 404 369L404 229Q404 168 392 113Q380 59 349 25Q318 -8 261 -8ZM239 76Q267 76 279 96Q291 117 294 152Q297 187 297 229L297 369Q297 405 293 435Q289 466 276 484Q263 502 235 502Q214 502 195 493Q177 484 163 473L163 102Q177 91 196 83Q216 76 239 76Z" fill="#225662" style=""></path></g><g transform="matrix(1,0,0,1,3940.8439,0)"><path d="M261 -8Q230 -8 205 7Q181 23 163 42L163 0L56 0L56 810L163 810L163 532Q182 554 208 570Q235 586 272 586Q317 586 343 562Q370 539 383 503Q396 468 400 431Q404 395 404 369L404 229Q404 168 392 113Q380 59 349 25Q318 -8 261 -8ZM239 76Q267 76 279 96Q291 117 294 152Q297 187 297 229L297 369Q297 405 293 435Q289 466 276 484Q263 502 235 502Q214 502 195 493Q177 484 163 473L163 102Q177 91 196 83Q216 76 239 76Z" fill="#225662" style=""></path></g><g transform="matrix(1,0,0,1,4387.8439,0)"><path d="M171 0L64 0L64 810L171 810L171 0Z" fill="#225662" style=""></path></g><g transform="matrix(1,0,0,1,4616.8439,0)"><path d="M214 -8Q146 -8 109 18Q72 45 57 96Q43 148 43 223L43 355Q43 432 58 483Q73 534 110 560Q148 586 214 586Q287 586 321 556Q356 526 367 469Q378 413 378 334L378 287L150 287L150 171Q150 136 156 114Q163 92 177 81Q192 71 215 71Q239 71 251 82Q264 94 268 115Q273 137 273 166L273 201L377 201L377 179Q377 92 340 42Q303 -8 214 -8ZM150 376L150 345L273 345L273 397Q273 433 269 457Q265 482 252 494Q240 507 213 507Q187 507 173 495Q160 483 155 454Q150 426 150 376Z" fill="#225662" style=""></path></g><g transform="matrix(1,0,0,1,5037.8439,0)"><path fill="#225662" style=""></path></g><g transform="matrix(1,0,0,1,5266.8439,0)"><path d="M265 0L152 0L152 726L15 726L15 810L398 810L398 726L265 726L265 0Z" fill="#225662" style=""></path></g><g transform="matrix(1,0,0,1,5679.8439,0)"><path d="M214 -8Q146 -8 109 18Q72 45 57 96Q43 148 43 223L43 355Q43 432 58 483Q73 534 110 560Q148 586 214 586Q287 586 321 556Q356 526 367 469Q378 413 378 334L378 287L150 287L150 171Q150 136 156 114Q163 92 177 81Q192 71 215 71Q239 71 251 82Q264 94 268 115Q273 137 273 166L273 201L377 201L377 179Q377 92 340 42Q303 -8 214 -8ZM150 376L150 345L273 345L273 397Q273 433 269 457Q265 482 252 494Q240 507 213 507Q187 507 173 495Q160 483 155 454Q150 426 150 376Z" fill="#225662" style=""></path></g><g transform="matrix(1,0,0,1,6100.8439,0)"><path d="M158 -8Q124 -8 98 11Q72 31 57 61Q42 92 42 126Q42 180 60 217Q78 254 109 279Q141 305 182 324Q224 343 270 361L270 402Q270 437 266 460Q262 483 249 494Q237 506 212 506Q190 506 176 496Q163 486 157 467Q151 449 151 424L151 395L45 399Q47 495 89 540Q131 586 219 586Q305 586 341 539Q377 492 377 403L377 139Q377 112 378 87Q380 62 382 40Q385 19 387 0L289 0Q286 16 281 40Q277 65 275 85Q265 51 236 21Q208 -8 158 -8ZM200 84Q216 84 230 93Q244 102 255 113Q266 125 270 132L270 296Q245 282 223 268Q201 254 184 238Q168 223 158 203Q149 184 149 159Q149 124 162 104Q175 84 200 84Z" fill="#225662" style=""></path></g></g></g></g></svg>